<?xml version="1.0" standalone="no"?>
<!DOCTYPE svg PUBLIC "-//W3C//DTD SVG 20010904//EN"
 "http://www.w3.org/TR/2001/REC-SVG-20010904/DTD/svg10.dtd">
<svg version="1.0" xmlns="http://www.w3.org/2000/svg"
 width="334.000000pt" height="195.000000pt" viewBox="0 0 334.000000 195.000000"
 preserveAspectRatio="xMidYMid meet">
<metadata>
Created by potrace 1.16, written by Peter Selinger 2001-2019
</metadata>
<g transform="translate(0.000000,195.000000) scale(0.100000,-0.100000)"
fill="#000000" stroke="none">
<path d="M1734 1778 c16 -9 -5 -16 -121 -39 -202 -41 -572 -136 -600 -154 -47
-31 -48 -51 -4 -181 22 -65 53 -150 69 -189 l30 -70 61 -3 c151 -7 877 195
1050 293 23 13 22 13 -18 20 -31 5 -64 26 -142 92 -148 124 -314 244 -336 243
-5 0 1 -6 11 -12z"/>
<path d="M660 1611 c-78 -24 -160 -90 -160 -130 0 -9 7 -26 15 -38 18 -25 127
-99 204 -138 52 -26 57 -27 108 -15 56 14 61 13 128 -29 24 -14 30 -25 29 -50
-1 -17 -1 -31 1 -31 1 0 19 -7 38 -15 l36 -15 -69 201 c-38 111 -77 210 -87
222 -10 11 -32 26 -50 33 -34 15 -151 17 -193 5z"/>
<path d="M2660 1296 c0 -3 19 -16 43 -28 36 -19 39 -23 19 -26 -35 -5 -45 -34
-28 -82 29 -84 96 -157 166 -182 30 -10 35 -9 51 10 9 12 15 31 12 42 -9 32 3
23 31 -24 15 -25 43 -61 63 -80 29 -27 38 -45 44 -83 l6 -48 2 43 c1 37 -4 49
-42 90 -24 26 -69 86 -100 133 -64 97 -138 170 -215 212 -29 16 -52 26 -52 23z"/>
<path d="M312 1248 c-5 -7 -12 -43 -14 -80 -2 -37 -1 -63 3 -57 9 15 19 -15
19 -56 0 -39 11 -49 46 -41 32 8 30 20 -12 90 -22 36 -33 65 -28 75 5 13 8 10
14 -10 4 -15 19 -44 33 -65 21 -30 27 -34 33 -21 3 9 3 29 0 45 -6 26 -6 26 9
7 10 -12 13 -30 9 -51 -7 -37 12 -102 36 -124 9 -9 20 -34 24 -55 l6 -40 -22
37 c-13 21 -26 38 -30 38 -12 0 -9 -108 2 -115 6 -4 18 -1 26 6 12 10 13 9 8
-5 -6 -16 -42 -22 -60 -8 -5 4 1 -3 14 -15 27 -27 106 -33 115 -9 4 9 15 13
29 10 19 -3 18 -2 -4 7 -28 11 -44 47 -47 101 -3 74 -83 255 -138 311 -37 39
-54 45 -71 25z"/>
<path d="M2791 876 c-56 -59 -354 -182 -498 -205 l-48 -8 37 -16 c67 -30 144
-22 281 28 158 59 259 113 271 147 9 27 1 78 -12 78 -5 0 -19 -11 -31 -24z"/>
<path d="M1681 862 c-36 -35 -38 -60 -12 -118 57 -124 233 -205 308 -140 22
19 28 32 27 63 -3 103 -117 207 -240 220 -49 5 -55 4 -83 -25z"/>
<path d="M1203 825 c-42 -29 -52 -169 -23 -307 4 -21 6 -38 3 -38 -2 0 -81 47
-176 104 -166 100 -277 161 -277 152 0 -2 39 -25 87 -51 48 -26 153 -88 233
-137 134 -83 147 -94 168 -138 52 -111 170 -202 260 -202 55 0 75 4 83 16 6 8
2 121 -6 161 -5 22 -87 61 -105 50 -18 -11 -5 -108 25 -177 6 -15 2 -18 -23
-18 -27 0 -30 3 -36 43 -19 137 -27 157 -57 157 -25 0 -96 -36 -101 -50 -2 -6
-14 10 -26 36 -18 37 -20 45 -7 40 24 -9 105 35 105 57 0 22 -109 149 -121
141 -14 -8 -11 5 8 37 21 35 29 36 37 7 7 -31 113 -135 124 -123 5 6 14 35 21
66 14 68 6 94 -44 138 -60 52 -111 64 -152 36z"/>
<path d="M2850 563 c-82 -53 -170 -91 -315 -138 -138 -45 -153 -57 -116 -94
28 -28 61 -26 162 8 173 58 279 126 311 197 10 25 18 49 16 54 -2 5 -28 -7
-58 -27z"/>
<path d="M2951 499 c-134 -148 -309 -231 -620 -294 -133 -27 -151 -35 -175
-77 -10 -15 -25 -28 -34 -29 -11 0 -13 -2 -4 -6 7 -3 21 2 30 10 10 9 62 26
117 37 373 80 599 190 745 361 30 35 50 61 46 57 -5 -4 -16 -3 -25 2 -13 7
-30 -6 -80 -61z"/>
<path d="M2047 396 c-38 -7 -72 -18 -77 -26 -11 -17 7 -59 37 -88 22 -20 34
-22 129 -22 57 0 104 2 104 5 0 4 -7 20 -16 36 -14 28 -14 32 0 48 22 24 20
28 -14 46 -34 17 -69 18 -163 1z"/>
</g>
</svg>
